name C:\Users\u0101727\Documents\MyRepositories\upper-imu-dc\Results\main_tracking\Case_31\FLX01_angularVelocities_bodyFrame.mot
datacolumns 4
datarows 70
range 2.01000000 2.70000000
endheader 
time	radius_imu_x	radius_imu_y	radius_imu_z	
          2.01000000	         -1.38810407	          0.42573674	          0.16951771	
          2.02000000	         -1.34752333	          0.51794505	          0.05415143	
          2.03000000	         -1.30849050	          0.59669755	         -0.04634463	
          2.04000000	         -1.27017913	          0.65930622	         -0.13149833	
          2.05000000	         -1.23170981	          0.70090896	         -0.20120031	
          2.06000000	         -1.19243631	          0.71510437	         -0.25572637	
          2.07000000	         -1.15221558	          0.69572748	         -0.29577358	
          2.08000000	         -1.11158006	          0.63920373	         -0.32249565	
          2.09000000	         -1.07175866	          0.54674782	         -0.33751275	
          2.10000000	         -1.03452259	          0.42570945	         -0.34286634	
          2.11000000	         -1.00184559	          0.28947146	         -0.34089279	
          2.12000000	         -0.97541936	          0.15556933	         -0.33401772	
          2.13000000	         -0.95616590	          0.04218655	         -0.32452018	
          2.14000000	         -0.94395277	         -0.03611962	         -0.31434620	
          2.15000000	         -0.93767474	         -0.07181204	         -0.30503612	
          2.16000000	         -0.93569233	         -0.06526959	         -0.29777131	
          2.17000000	         -0.93640055	         -0.02299890	         -0.29347458	
          2.18000000	         -0.93863208	          0.04548422	         -0.29287885	
          2.19000000	         -0.94173491	          0.13038844	         -0.29652105	
          2.20000000	         -0.94536754	          0.22290111	         -0.30467368	
          2.21000000	         -0.94918787	          0.31494175	         -0.31726052	
          2.22000000	         -0.95263051	          0.39845142	         -0.33381365	
          2.23000000	         -0.95488785	          0.46546993	         -0.35351540	
          2.24000000	         -0.95508061	          0.50933491	         -0.37532941	
          2.25000000	         -0.95250530	          0.52631752	         -0.39818334	
          2.26000000	         -0.94683208	          0.51685715	         -0.42114990	
          2.27000000	         -0.93817720	          0.48596118	         -0.44358021	
          2.28000000	         -0.92704201	          0.44264557	         -0.46516225	
          2.29000000	         -0.91415552	          0.39847844	         -0.48589912	
          2.30000000	         -0.90027130	          0.36548518	         -0.50602104	
          2.31000000	         -0.88596749	          0.35375898	         -0.52585709	
          2.32000000	         -0.87148667	          0.36916041	         -0.54569308	
          2.33000000	         -0.85665225	          0.41170391	         -0.56564320	
          2.34000000	         -0.84090010	          0.47537278	         -0.58556583	
          2.35000000	         -0.82343091	          0.54963636	         -0.60504714	
          2.36000000	         -0.80343005	          0.62204262	         -0.62345766	
          2.37000000	         -0.78028248	          0.68087898	         -0.64006827	
          2.38000000	         -0.75373733	          0.71728615	         -0.65419549	
          2.39000000	         -0.72399428	          0.72657959	         -0.66533269	
          2.40000000	         -0.69168858	          0.70859016	         -0.67322372	
          2.41000000	         -0.65778022	          0.66706413	         -0.67785948	
          2.42000000	         -0.62339567	          0.60855011	         -0.67941372	
          2.43000000	         -0.58967940	          0.54124759	         -0.67815672	
          2.44000000	         -0.55768742	          0.47399595	         -0.67438432	
          2.45000000	         -0.52833026	          0.41532160	         -0.66838401	
          2.46000000	         -0.50235646	          0.37240058	         -0.66044158	
          2.47000000	         -0.48035224	          0.34991240	         -0.65087324	
          2.48000000	         -0.46273329	          0.34902320	         -0.64005904	
          2.49000000	         -0.44972798	          0.36698600	         -0.62845859	
          2.50000000	         -0.44136317	          0.39773985	         -0.61660115	
          2.51000000	         -0.43744884	          0.43334567	         -0.60505013	
          2.52000000	         -0.43755084	          0.46566605	         -0.59434528	
          2.53000000	         -0.44096970	          0.48779855	         -0.58493178	
          2.54000000	         -0.44676515	          0.49506707	         -0.57709339	
          2.55000000	         -0.45384571	          0.48549820	         -0.57090976	
          2.56000000	         -0.46110141	          0.45977472	         -0.56625237	
          2.57000000	         -0.46753575	          0.42079170	         -0.56281927	
          2.58000000	         -0.47236427	          0.37303541	         -0.56019789	
          2.59000000	         -0.47507630	          0.32192621	         -0.55794376	
          2.60000000	         -0.47547689	          0.27313127	         -0.55566531	
          2.61000000	         -0.47371600	          0.23183235	         -0.55309812	
          2.62000000	         -0.47028102	          0.20201228	         -0.55014224	
          2.63000000	         -0.46591822	          0.18588191	         -0.54684430	
          2.64000000	         -0.46148421	          0.18359757	         -0.54333474	
          2.65000000	         -0.45777613	          0.19340415	         -0.53975658	
          2.66000000	         -0.45539768	          0.21221287	         -0.53622235	
          2.67000000	         -0.45468063	          0.23642202	         -0.53280948	
          2.68000000	         -0.45564384	          0.26263624	         -0.52957976	
          2.69000000	         -0.45797683	          0.28799280	         -0.52660355	
          2.70000000	         -0.46107150	          0.31010550	         -0.52398044	
